<svg width="18" height="18" viewBox="0 0 18 18" fill="none" xmlns="http://www.w3.org/2000/svg">
<path d="M8.35593 15.7119C11.5893 15.7119 14.2587 13.2975 14.6598 10.1732C14.1846 9.93125 13.698 9.65457 13.42 9.49315C13.2748 9.4088 13.1864 9.35593 13.1864 9.35593C13.1864 9.35593 13.3021 9.28669 13.4864 9.18027C13.7714 9.01574 14.2205 8.76235 14.6598 8.53862C14.2587 5.41436 11.5893 3 8.35593 3V6.81356C8.39981 6.81356 8.44343 6.81467 8.48676 6.81687C9.37262 6.86181 10.1383 7.36057 10.5574 8.08494C10.7738 8.45893 10.8983 8.89277 10.8983 9.35593C10.8983 9.81909 10.7738 10.2529 10.5574 10.6269C10.15 11.331 9.41535 11.8219 8.56111 11.8901C8.49343 11.8956 8.425 11.8983 8.35593 11.8983V15.7119Z" fill="white" fill-opacity="0.2"/>
<path d="M2 9.35593C2 12.8662 4.84565 15.7119 8.35593 15.7119V11.8983C8.29011 11.8983 8.22488 11.8958 8.16032 11.8909C7.302 11.8255 6.56336 11.3336 6.15449 10.6269C5.9381 10.2529 5.81356 9.81909 5.81356 9.35593C5.81356 8.89277 5.9381 8.45893 6.15449 8.08494C6.57091 7.36523 7.3294 6.86824 8.208 6.81779C8.25695 6.81498 8.30628 6.81356 8.35593 6.81356V3C4.84565 3 2 5.84565 2 9.35593Z" fill="white" fill-opacity="0.2"/>
<path d="M8.35593 11.8983C8.425 11.8983 8.49343 11.8956 8.56111 11.8901C9.41535 11.8219 10.15 11.331 10.5574 10.6269C10.7738 10.2529 10.8983 9.81909 10.8983 9.35593C10.8983 8.89277 10.7738 8.45893 10.5574 8.08494C10.1383 7.36057 9.37262 6.86181 8.48676 6.81687C8.44343 6.81467 8.39981 6.81356 8.35593 6.81356C8.30628 6.81356 8.25695 6.81498 8.208 6.81779C7.3294 6.86824 6.57091 7.36523 6.15449 8.08494C5.9381 8.45893 5.81356 8.89277 5.81356 9.35593C5.81356 9.81909 5.9381 10.2529 6.15449 10.6269C6.56336 11.3336 7.302 11.8255 8.16032 11.8909C8.22488 11.8958 8.29011 11.8983 8.35593 11.8983Z" fill="white" fill-opacity="0.2"/>
<path d="M14.6598 10.1732C15.0729 10.3836 15.4774 10.5678 15.7288 10.6271C16.4121 10.7884 17 10.058 17 9.35593C17 8.65389 16.4121 7.92343 15.7288 8.08475C15.4774 8.14408 15.0729 8.32824 14.6598 8.53862C14.2205 8.76235 13.7714 9.01574 13.4864 9.18027C13.3021 9.28669 13.1864 9.35593 13.1864 9.35593C13.1864 9.35593 13.2748 9.4088 13.42 9.49315C13.698 9.65457 14.1846 9.93125 14.6598 10.1732Z" fill="white" fill-opacity="0.2"/>
<path d="M14.6598 10.1732C14.2587 13.2975 11.5893 15.7119 8.35593 15.7119M14.6598 10.1732V10.1732ZM14.6598 10.1732C15.0729 10.3836 15.4774 10.5678 15.7288 10.6271M14.6598 10.1732C14.1846 9.93125 13.698 9.65457 13.42 9.49315M8.35593 15.7119C4.84565 15.7119 2 12.8662 2 9.35593C2 5.84565 4.84565 3 8.35593 3M8.35593 15.7119V11.8983M8.35593 3C11.5893 3 14.2587 5.41436 14.6598 8.53862M8.35593 3V6.81356M14.6598 8.53862C15.0729 8.32824 15.4774 8.14408 15.7288 8.08475M14.6598 8.53862V8.53862ZM14.6598 8.53862C14.2205 8.76235 13.7714 9.01574 13.4864 9.18027M10.8983 9.35593C10.8983 8.89277 10.7738 8.45893 10.5574 8.08494M10.8983 9.35593C10.8983 9.81909 10.7738 10.2529 10.5574 10.6269M10.8983 9.35593C10.8983 7.9957 9.83008 6.88496 8.48676 6.81687M10.8983 9.35593C10.8983 10.691 9.86928 11.7857 8.56111 11.8901M8.35593 11.8983C8.425 11.8983 8.49343 11.8956 8.56111 11.8901M8.35593 11.8983C8.29011 11.8983 8.22488 11.8958 8.16032 11.8909M5.81356 9.35593C5.81356 9.81909 5.9381 10.2529 6.15449 10.6269M5.81356 9.35593C5.81356 8.89277 5.9381 8.45893 6.15449 8.08494M5.81356 9.35593C5.81356 10.6942 6.84761 11.791 8.16032 11.8909M5.81356 9.35593C5.81356 8.00147 6.87273 6.8944 8.208 6.81779M8.35593 6.81356C8.39981 6.81356 8.44343 6.81467 8.48676 6.81687M8.35593 6.81356C8.30628 6.81356 8.25695 6.81498 8.208 6.81779M2.85154 6.17797L6.15449 8.08494M6.15449 8.08494C6.57091 7.36523 7.3294 6.86824 8.208 6.81779M10.5574 10.6269L13.8603 12.5339M10.5574 10.6269C10.15 11.331 9.41535 11.8219 8.56111 11.8901M2.85154 12.5339L6.15449 10.6269M6.15449 10.6269C6.56336 11.3336 7.302 11.8255 8.16032 11.8909M10.5574 8.08494L13.8603 6.17797M10.5574 8.08494C10.1383 7.36057 9.37262 6.86181 8.48676 6.81687M15.7288 10.6271C16.4121 10.7884 17 10.058 17 9.35593C17 8.65389 16.4121 7.92343 15.7288 8.08475M15.7288 10.6271C15.1883 10.4995 13.9397 9.79491 13.42 9.49315M15.7288 8.08475C15.2101 8.20719 14.0394 8.86101 13.4864 9.18027M13.4864 9.18027C13.3021 9.28669 13.1864 9.35593 13.1864 9.35593C13.1864 9.35593 13.2748 9.4088 13.42 9.49315" stroke="white" stroke-miterlimit="10" stroke-linecap="round" stroke-linejoin="round"/>
</svg>
