<svg width="18" height="18" viewBox="0 0 18 18" fill="none" xmlns="http://www.w3.org/2000/svg">
<path d="M16 8.52542C16 9.5083 15.2032 10.3051 14.2203 10.3051H3.77966C2.79678 10.3051 2 9.5083 2 8.52542V3.77966C2 2.79678 2.79678 2 3.77966 2H14.2203C15.2032 2 16 2.79678 16 3.77966V8.52542Z" fill="white" fill-opacity="0.2"/>
<path d="M3.77966 4.37288H4.9661C5.29374 4.37288 5.55932 4.63847 5.55932 4.9661C5.55932 5.0469 5.54316 5.12393 5.51391 5.19414L4.37288 7.9322M11.8475 4.37288H13.0339C13.3615 4.37288 13.6271 4.63847 13.6271 4.9661C13.6271 5.0469 13.611 5.12393 13.5817 5.19414L12.4407 7.9322M7.81356 4.37288H9C9.32764 4.37288 9.59322 4.63847 9.59322 4.9661C9.59322 5.0469 9.57705 5.12393 9.54781 5.19414L8.40678 7.9322M3.18644 12.678V13.8644C3.18644 14.5196 3.71764 15.0508 4.37288 15.0508H13.6271C14.2824 15.0508 14.8136 14.5196 14.8136 13.8644V12.678M6.62712 12.678H11.3729M16 8.52542C16 9.5083 15.2032 10.3051 14.2203 10.3051H3.77966C2.79678 10.3051 2 9.5083 2 8.52542V3.77966C2 2.79678 2.79678 2 3.77966 2H14.2203C15.2032 2 16 2.79678 16 3.77966V8.52542Z" stroke="white" stroke-miterlimit="10" stroke-linecap="round" stroke-linejoin="round"/>
</svg>
