<svg width="18" height="18" viewBox="0 0 18 18" fill="none" xmlns="http://www.w3.org/2000/svg">
<path d="M7.09566 8.87554L7.39885 9.17873C7.93142 9.7113 8.19777 9.97766 8.52017 9.95974C8.84257 9.94198 9.07773 9.64774 9.54819 9.05956L11.4284 6.70888M2.76233 6.64287V7.20042C2.76233 8.9365 2.76233 9.80447 2.97669 10.5989C3.24131 11.58 3.74325 12.4846 4.4402 13.2373C5.0044 13.8467 5.74915 14.3212 7.23837 15.2702C7.90513 15.6951 8.23851 15.9075 8.59283 16.0063C9.0305 16.1282 9.49416 16.1282 9.93183 16.0063C10.2861 15.9075 10.6195 15.6951 11.2863 15.2702C12.7755 14.3212 13.5203 13.8467 14.0845 13.2373C14.7814 12.4846 15.2834 11.58 15.548 10.5989C15.7623 9.80447 15.7623 8.9365 15.7623 7.20042L15.7623 6.64287C15.7623 5.56184 15.7623 5.02133 15.5575 4.56489C15.4311 4.28337 15.2501 4.02842 15.0245 3.81421C14.6586 3.46682 14.1402 3.27702 13.1031 2.89742L10.974 2.11814C10.1276 1.80831 9.70433 1.65332 9.26233 1.65332C8.82033 1.65332 8.39711 1.80831 7.55066 2.11814L5.42155 2.89742C4.38444 3.27702 3.86603 3.46682 3.50015 3.81421C3.27453 4.02842 3.09354 4.28337 2.96715 4.56489C2.76233 5.02133 2.76233 5.56184 2.76233 6.64287Z" fill="white" fill-opacity="0.2"/>
<path d="M7.09566 8.87554L7.39885 9.17873C7.93142 9.7113 8.19777 9.97766 8.52017 9.95974C8.84257 9.94198 9.07773 9.64774 9.54819 9.05956L11.4284 6.70888M2.76233 6.64286V7.20042C2.76233 8.9365 2.76233 9.80447 2.97669 10.5989C3.24131 11.58 3.74325 12.4846 4.4402 13.2373C5.0044 13.8467 5.74915 14.3212 7.23837 15.2702C7.90513 15.6951 8.23851 15.9075 8.59283 16.0063C9.0305 16.1282 9.49416 16.1282 9.93183 16.0063C10.2861 15.9075 10.6195 15.6951 11.2863 15.2702C12.7755 14.3212 13.5203 13.8467 14.0845 13.2373C14.7814 12.4846 15.2834 11.58 15.548 10.5989C15.7623 9.80447 15.7623 8.9365 15.7623 7.20042L15.7623 6.64286C15.7623 5.56184 15.7623 5.02133 15.5575 4.56489C15.4311 4.28337 15.2501 4.02842 15.0245 3.81421C14.6586 3.46682 14.1402 3.27702 13.1031 2.89742L10.974 2.11814C10.1276 1.80831 9.70433 1.65332 9.26233 1.65332C8.82033 1.65332 8.39711 1.80831 7.55066 2.11814L5.42155 2.89742C4.38444 3.27702 3.86603 3.46682 3.50015 3.81421C3.27453 4.02842 3.09354 4.28337 2.96715 4.56489C2.76233 5.02133 2.76233 5.56184 2.76233 6.64286Z" stroke="white" stroke-linecap="round" stroke-linejoin="round"/>
</svg>
