<svg width="32" height="32" viewBox="0 0 32 32" fill="none" xmlns="http://www.w3.org/2000/svg">
<path d="M27 0H5C2.23858 0 0 2.23858 0 5V27C0 29.7614 2.23858 32 5 32H27C29.7614 32 32 29.7614 32 27V5C32 2.23858 29.7614 0 27 0Z" fill="#121E40"/>
<g clip-path="url(#clip0_32366_92547)">
<path d="M17.3126 14.7714L23.1379 8H21.7575L16.6994 13.8795L12.6595 8H8L14.1091 16.8909L8 23.9918H9.38049L14.722 17.7828L18.9884 23.9918H23.6479L17.3123 14.7714H17.3126ZM15.4219 16.9692L14.8029 16.0839L9.87789 9.03921H11.9982L15.9728 14.7245L16.5918 15.6098L21.7582 22.9998H19.6378L15.4219 16.9696V16.9692Z" fill="white"/>
<g clip-path="url(#clip1_32366_92547)">
<path d="M17.3126 14.7714L23.1379 8H21.7575L16.6994 13.8795L12.6595 8H8L14.1091 16.8909L8 23.9918H9.38049L14.722 17.7828L18.9884 23.9918H23.6479L17.3123 14.7714H17.3126ZM15.4219 16.9692L14.8029 16.0839L9.87789 9.03921H11.9982L15.9728 14.7245L16.5918 15.6098L21.7582 22.9998H19.6378L15.4219 16.9696V16.9692Z" fill="white"/>
</g>
</g>
<defs>
<clipPath id="clip0_32366_92547">
<rect width="15.6479" height="16" fill="white" transform="translate(8 8)"/>
</clipPath>
<clipPath id="clip1_32366_92547">
<rect width="15.6479" height="16" fill="white" transform="translate(8 8)"/>
</clipPath>
</defs>
</svg>
