<svg width="18" height="18" viewBox="0 0 18 18" fill="none" xmlns="http://www.w3.org/2000/svg">
<path d="M4.37288 15.9709H9.11864V14.7845C9.11864 14.1293 8.58744 13.5981 7.9322 13.5981H5.55932C4.90408 13.5981 4.37288 14.1293 4.37288 14.7845V15.9709Z" fill="white" fill-opacity="0.2"/>
<path d="M11.4915 11.2252H2V14.7845C2 15.4397 2.5312 15.9709 3.18644 15.9709H4.37288V14.7845C4.37288 14.1293 4.90408 13.5981 5.55932 13.5981H7.9322C8.58744 13.5981 9.11864 14.1293 9.11864 14.7845V15.9709H10.3051C10.9603 15.9709 11.4915 15.4397 11.4915 14.7845V13.7167V11.2252Z" fill="white" fill-opacity="0.2"/>
<path d="M3.18644 5.53027C2.5312 5.53027 2 6.06147 2 6.71671V11.2252H11.4915V6.71671C11.4915 6.06147 10.9603 5.53027 10.3051 5.53027H3.18644Z" fill="white" fill-opacity="0.2"/>
<path d="M3.18644 5.53027H10.3051C10.3051 3.56451 8.71152 1.97095 6.74576 1.97095C4.78001 1.97095 3.18644 3.56451 3.18644 5.53027Z" fill="white" fill-opacity="0.2"/>
<path d="M14.8136 8.97095C15.4688 8.97095 16 8.43976 16 7.78451C16 7.12925 15.4688 6.59807 14.8136 6.59807C14.1583 6.59807 13.6271 7.12925 13.6271 7.78451C13.6271 8.43976 14.1583 8.97095 14.8136 8.97095Z" fill="white" fill-opacity="0.2"/>
<path d="M14.8136 8.97095C15.4688 8.97095 16 8.43976 16 7.78451C16 7.12925 15.4688 6.59807 14.8136 6.59807C14.1583 6.59807 13.6271 7.12925 13.6271 7.78451C13.6271 8.43976 14.1583 8.97095 14.8136 8.97095ZM14.8136 8.97095V12.5303C14.8136 13.1855 14.2824 13.7167 13.6271 13.7167H11.4915M3.18644 5.53027C2.5312 5.53027 2 6.06147 2 6.71671V11.2252M3.18644 5.53027H10.3051M3.18644 5.53027C3.18644 3.56451 4.78001 1.97095 6.74576 1.97095C8.71152 1.97095 10.3051 3.56451 10.3051 5.53027M10.3051 5.53027C10.9603 5.53027 11.4915 6.06147 11.4915 6.71671V11.2252M11.4915 11.2252H2M11.4915 11.2252V13.7167M2 11.2252V14.7845C2 15.4397 2.5312 15.9709 3.18644 15.9709M10.3051 15.9709C10.9603 15.9709 11.4915 15.4397 11.4915 14.7845V13.7167M10.3051 15.9709H3.18644M10.3051 15.9709H9.11864M3.18644 15.9709H4.37288M9.11864 15.9709V14.7845C9.11864 14.1293 8.58744 13.5981 7.9322 13.5981H5.55932C4.90408 13.5981 4.37288 14.1293 4.37288 14.7845V15.9709M9.11864 15.9709H4.37288M4.37288 8.97095V7.78451M6.74576 8.97095V7.78451M9.11864 8.97095V7.78451" stroke="white" stroke-miterlimit="10" stroke-linecap="round" stroke-linejoin="round"/>
</svg>
